#N canvas 232 123 383 493 12;
#X obj 85 30 inlet;
#X obj 27 458 outlet~;
#X obj 141 222 delay;
#X obj 160 271 f;
#X obj 186 31 inlet attack-time;
#X obj 223 218 inlet decay-time;
#X obj 85 99 t b b b;
#X obj 155 177 f;
#X msg 77 219 1 \$1;
#X obj 44 372 line~;
#X obj 77 404 snapshot~;
#X floatatom 139 454 5 0 0 0 - - -, f 5;
#X obj 125 364 bang~;
#X msg 161 312 0 \$1;
#X obj 205 343 print;
#X connect 0 0 6 0;
#X connect 2 0 3 0;
#X connect 3 0 13 0;
#X connect 4 0 7 1;
#X connect 5 0 3 1;
#X connect 6 0 2 0;
#X connect 6 2 7 0;
#X connect 7 0 2 1;
#X connect 7 0 8 0;
#X connect 8 0 9 0;
#X connect 9 0 1 0;
#X connect 9 0 10 0;
#X connect 10 0 11 0;
#X connect 12 0 10 0;
#X connect 13 0 9 0;
#X connect 13 0 14 0;
