#N canvas 963 410 582 510 12;
#X obj -1094 132 phasor~ 50;
#X obj -1156 151 mtof;
#X obj -1094 206 +~;
#X obj -1094 154 *~ 2;
#X obj -1094 176 -~ 1;
#X obj -1156 173 osc~;
#X obj -1092 263 *~ 0.2;
#X obj -1094 109 mtof;
#X obj -1163 48 inlet;
#X obj -1093 300 outlet~;
#X obj -970 24 inlet;
#X connect 0 0 3 0;
#X connect 1 0 5 0;
#X connect 2 0 6 0;
#X connect 3 0 4 0;
#X connect 4 0 2 1;
#X connect 5 0 2 0;
#X connect 6 0 9 0;
#X connect 7 0 0 0;
#X connect 8 0 1 0;
#X connect 10 0 7 0;
