#N canvas 299 109 301 239 12;
#X obj 75 46 bng 15 250 50 0 empty empty empty 17 7 0 10 -262144 -1
-1;
#X obj 140 86 until;
#X obj 109 122 + 1;
#X obj 68 122 f 0;
#X msg 151 47 512;
#X floatatom 46 171 5 0 0 0 - - -, f 5;
#X msg 29 43 0;
#X text 22 18 reset;
#X text 74 17 add 1;
#X text 139 21 add 512;
#X connect 0 0 3 0;
#X connect 1 0 3 0;
#X connect 2 0 3 1;
#X connect 3 0 2 0;
#X connect 3 0 5 0;
#X connect 4 0 1 0;
#X connect 6 0 3 0;
