#N canvas -16 70 1628 819 12;
#X obj 701 -23 tgl 15 0 empty empty empty 17 7 0 10 -262144 -1 -1 1
1;
#X obj 702 32 f 0;
#X obj 736 32 + 1;
#X floatatom 659 125 5 0 0 0 - - -, f 5;
#X obj 86 753 dac~;
#X msg 88 339 127;
#X msg 190 284 127;
#X msg 290 328 127;
#X msg 285 429 127;
#X msg 198 564 127;
#X obj 510 365 additive;
#X obj 497 544 bng 15 250 50 0 empty empty empty 17 7 0 10 -262144
-1 -1;
#X obj 490 602 voice_any 50 250 500;
#X obj 10 411 ../abs/drumkit-kick 50 300;
#X obj 146 464 ../abs/drumkit-snare 100 250;
#X msg 478 330 56;
#X obj 472 489 voice_any 20 70 100;
#X msg 409 322 57;
#X obj 580 445 hsl 128 15 0 254 0 0 empty empty empty -2 -8 0 10 -262144
-1 -1 0 1;
#X obj 535 398 hsl 128 15 0 256 0 0 empty empty empty -2 -8 0 10 -262144
-1 -1 0 1;
#X obj 557 422 hsl 128 15 0 254 0 0 empty empty empty -2 -8 0 10 -262144
-1 -1 0 1;
#X obj 702 0 metro 150;
#X obj 704 66 mod 16;
#X obj 554 330 hsl 128 15 0 127 0 0 empty empty empty -2 -8 0 10 -262144
-1 -1 0 1;
#X obj 157 540 ../abs/drumkit-hat 10;
#X obj 199 589 ../abs/drumkit-tom 500 250;
#X obj 97 367 ../abs/drumkit-cymbal 30 1500;
#N canvas 0 50 450 250 (subpatch) 0;
#N canvas 0 50 450 250 (subpatch) 0;
#X obj 85 56 bng 15 250 50 0 empty empty empty 17 7 0 10 -262144 -1
-1;
#X obj 49 26 tgl 15 0 empty empty empty 17 7 0 10 -262144 -1 -1 0 1
;
#X coords 0 1 100 -1 200 140 1 0 0;
#X restore 44 30 graph;
#X obj 29 10 hsl 128 15 0 127 0 0 empty empty empty -2 -8 0 10 -262144
-1 -1 0 1;
#X coords 0 1 100 -1 200 140 1 0 0;
#X restore 100 20 graph;
#X obj 779 125 sequencer_line;
#X obj 711 106 send beat;
#N canvas 499 304 617 487 kick 1;
#X obj 231 56 inlet;
#X obj 277 362 ../abs/drumkit-kick 50 300;
#X obj 253 333 ../abs/drumkit-kick 50 300;
#X obj 226 306 ../abs/drumkit-kick 50 300;
#X obj 201 276 ../abs/drumkit-kick 50 300;
#X obj 229 133 f 0;
#X obj 263 133 + 1;
#X obj 229 170 mod 4;
#X obj 229 99 sel 1;
#X msg 301 241 127;
#X msg 261 241 127;
#X msg 221 241 127;
#X msg 183 241 127;
#X floatatom 172 205 5 0 0 0 - - -, f 5;
#X floatatom 174 170 5 0 0 0 - - -, f 5;
#X obj 219 417 send~ instr1;
#X obj 228 204 sel 0 1 2 3;
#X connect 0 0 8 0;
#X connect 1 0 15 0;
#X connect 2 0 15 0;
#X connect 3 0 15 0;
#X connect 4 0 15 0;
#X connect 5 0 6 0;
#X connect 5 0 7 0;
#X connect 5 0 14 0;
#X connect 6 0 5 1;
#X connect 7 0 13 0;
#X connect 7 0 16 0;
#X connect 8 0 5 0;
#X connect 9 0 1 0;
#X connect 10 0 2 0;
#X connect 11 0 3 0;
#X connect 12 0 4 0;
#X connect 16 0 12 0;
#X connect 16 1 11 0;
#X connect 16 2 10 0;
#X connect 16 3 9 0;
#X restore 792 132 pd kick;
#N canvas 82 47 450 300 snare 0;
#X obj 65 51 inlet;
#X obj 68 128 ../abs/drumkit-snare 100 250;
#X obj 67 96 * 127;
#X obj 70 175 send~ instr2;
#X connect 0 0 2 0;
#X connect 1 0 3 0;
#X connect 2 0 1 0;
#X restore 792 169 pd snare;
#N canvas 615 212 450 606 hat 0;
#X obj 137 207 inlet;
#X obj 90 420 ../abs/drumkit-hat 10;
#X obj 106 554 send~ instr3;
#X obj 136 280 f 0;
#X obj 170 280 + 1;
#X obj 136 317 mod 4;
#X obj 136 246 sel 1;
#X msg 208 388 127;
#X msg 168 388 127;
#X msg 128 388 127;
#X msg 90 388 127;
#X floatatom 79 352 5 0 0 0 - - -, f 5;
#X floatatom 81 317 5 0 0 0 - - -, f 5;
#X obj 135 351 sel 0 1 2 3;
#X obj 212 504 ../abs/drumkit-hat 10;
#X obj 129 449 ../abs/drumkit-hat 10;
#X obj 171 475 ../abs/drumkit-hat 10;
#X connect 0 0 6 0;
#X connect 1 0 2 0;
#X connect 3 0 4 0;
#X connect 3 0 5 0;
#X connect 3 0 12 0;
#X connect 4 0 3 1;
#X connect 5 0 11 0;
#X connect 5 0 13 0;
#X connect 6 0 3 0;
#X connect 7 0 14 0;
#X connect 8 0 16 0;
#X connect 9 0 15 0;
#X connect 10 0 1 0;
#X connect 13 0 10 0;
#X connect 13 1 9 0;
#X connect 13 2 8 0;
#X connect 13 3 7 0;
#X connect 14 0 2 0;
#X connect 15 0 2 0;
#X connect 16 0 2 0;
#X restore 793 206 pd hat;
#X obj 972 648 dac~;
#X obj 779 162 sequencer_line;
#X obj 779 199 sequencer_line;
#X obj 779 236 sequencer_line;
#X obj 779 273 sequencer_line;
#X obj 779 310 sequencer_line;
#X obj 779 347 sequencer_line;
#X obj 779 384 sequencer_line;
#X obj 834 518 r~ instr1;
#X obj 929 495 r~ instr2;
#X obj 1041 520 r~ instr3;
#X obj 1159 521 r~ instr4;
#X obj 87 205 sel 0 1 2 3 4 5 6 7 8 9 10 11 12 13 14 15, f 71;
#X msg 468 371 0;
#X obj 989 599 /~ 3;
#X connect 0 0 21 0;
#X connect 1 0 2 0;
#X connect 1 0 22 0;
#X connect 2 0 1 1;
#X connect 5 0 26 0;
#X connect 6 0 13 0;
#X connect 7 0 14 0;
#X connect 8 0 24 0;
#X connect 9 0 25 0;
#X connect 10 0 16 1;
#X connect 11 0 12 0;
#X connect 12 0 4 0;
#X connect 13 0 4 0;
#X connect 13 0 4 1;
#X connect 14 0 4 0;
#X connect 14 0 4 1;
#X connect 15 0 10 0;
#X connect 15 0 46 0;
#X connect 16 0 4 0;
#X connect 16 0 4 1;
#X connect 17 0 46 0;
#X connect 17 0 10 0;
#X connect 18 0 16 4;
#X connect 19 0 16 2;
#X connect 20 0 16 3;
#X connect 21 0 1 0;
#X connect 22 0 29 0;
#X connect 23 0 10 1;
#X connect 24 0 4 0;
#X connect 24 0 4 1;
#X connect 25 0 4 0;
#X connect 25 0 4 1;
#X connect 26 0 4 0;
#X connect 26 0 4 1;
#X connect 28 0 30 0;
#X connect 34 0 31 0;
#X connect 35 0 32 0;
#X connect 41 0 47 0;
#X connect 42 0 47 0;
#X connect 43 0 47 0;
#X connect 44 0 47 0;
#X connect 45 0 7 0;
#X connect 45 0 6 0;
#X connect 45 0 15 0;
#X connect 45 2 8 0;
#X connect 45 3 6 0;
#X connect 45 3 15 0;
#X connect 45 4 6 0;
#X connect 45 4 7 0;
#X connect 45 4 17 0;
#X connect 45 6 8 0;
#X connect 45 7 8 0;
#X connect 45 9 8 0;
#X connect 45 10 6 0;
#X connect 45 12 6 0;
#X connect 45 12 7 0;
#X connect 45 14 8 0;
#X connect 45 15 8 0;
#X connect 46 0 16 0;
#X connect 47 0 33 0;
#X connect 47 0 33 1;
#X coords 0 -1 1 1 85 60 2 100 100;
