#N canvas 1 57 465 419 12;
#X obj 147 115 osc~ 600;
#X obj 209 168 *~;
#X obj 241 115 osc~ 2;
#X obj 230 240 *~;
#X obj 208 287 *~;
#X obj 145 168 tgl 15 0 empty empty empty 17 7 0 10 -262144 -1 -1 0
1;
#X text 99 167 mute;
#X obj 42 240 hsl 128 30 0 1 0 0 empty empty empty -2 -8 1 10 -4032
-1 -1 0 1;
#X text 39 215 volume;
#X obj 251 198 +~;
#X obj 319 115 noise~;
#X obj 206 350 dac~;
#X obj 243 58 hsl 128 15 0 50 0 0 empty empty empty -2 -8 0 10 -262144
-1 -1 0 1;
#X obj 319 168 *~ 0.2;
#X text 240 33 modulation;
#X connect 0 0 1 0;
#X connect 1 0 9 0;
#X connect 2 0 1 1;
#X connect 3 0 4 1;
#X connect 4 0 11 0;
#X connect 4 0 11 1;
#X connect 5 0 3 0;
#X connect 7 0 4 0;
#X connect 9 0 3 1;
#X connect 10 0 13 0;
#X connect 12 0 2 0;
#X connect 13 0 9 1;
