#N canvas 766 85 634 740 12;
#X msg 53 242 60 100;
#X obj 58 309 poly 4 1;
#X obj 102 361 pack f f f;
#X obj 58 386 route 1 2 3 4;
#X obj 79 463 voice 50 250 500;
#X obj 132 523 voice 50 250 500;
#X obj 58 426 voice 50 250 500;
#X obj 108 494 voice 50 250 500;
#X obj 52 557 *~ 0.5;
#X obj 52 597 dac~;
#X obj 40 15 tgl 15 0 empty empty empty 17 7 0 10 -262144 -1 -1 0 1
;
#X obj 40 50 metro 500;
#X obj 40 90 f 0;
#X obj 94 89 + 1;
#X msg 130 242 62 100;
#X msg 214 242 64 100;
#X floatatom 94 129 5 0 0 0 - - -, f 5;
#X floatatom 53 361 5 0 0 0 - - -, f 5;
#X obj 40 170 sel 0 1 2 3 4 5 6 7 8 9 10 11 12 13 14;
#X obj 40 130 mod 15;
#X connect 0 0 1 0;
#X connect 1 0 2 0;
#X connect 1 0 17 0;
#X connect 1 1 2 1;
#X connect 1 2 2 2;
#X connect 2 0 3 0;
#X connect 3 0 6 0;
#X connect 3 1 4 0;
#X connect 3 2 7 0;
#X connect 3 3 5 0;
#X connect 4 0 8 0;
#X connect 5 0 8 0;
#X connect 6 0 8 0;
#X connect 7 0 8 0;
#X connect 8 0 9 0;
#X connect 8 0 9 1;
#X connect 10 0 11 0;
#X connect 11 0 12 0;
#X connect 12 0 13 0;
#X connect 12 0 19 0;
#X connect 13 0 12 1;
#X connect 14 0 1 0;
#X connect 15 0 1 0;
#X connect 18 0 0 0;
#X connect 18 1 0 0;
#X connect 18 2 0 0;
#X connect 18 3 14 0;
#X connect 18 4 15 0;
#X connect 18 6 14 0;
#X connect 18 8 0 0;
#X connect 18 9 15 0;
#X connect 18 10 14 0;
#X connect 18 11 14 0;
#X connect 18 12 0 0;
#X connect 19 0 16 0;
#X connect 19 0 18 0;
