#N canvas 99 465 1116 606 10;
#X obj 387 147 sel 0 1 2 3 4 5 6 7 8 9 10 11 12 13 14 15, f 68;
#X obj 358 102 tgl 30 0 empty empty empty 17 7 0 10 -262144 -1 -1 0
1;
#X obj 392 102 tgl 30 0 empty empty empty 17 7 0 10 -262144 -1 -1 0
1;
#X obj 426 102 tgl 30 0 empty empty empty 17 7 0 10 -262144 -1 -1 0
1;
#X obj 460 102 tgl 30 0 empty empty empty 17 7 0 10 -262144 -1 -1 0
1;
#X obj 494 102 tgl 30 0 empty empty empty 17 7 0 10 -262144 -1 -1 0
1;
#X obj 528 102 tgl 30 0 empty empty empty 17 7 0 10 -262144 -1 -1 0
1;
#X obj 562 102 tgl 30 0 empty empty empty 17 7 0 10 -262144 -1 -1 0
1;
#X obj 596 102 tgl 30 0 empty empty empty 17 7 0 10 -262144 -1 -1 0
1;
#X obj 630 102 tgl 30 0 empty empty empty 17 7 0 10 -262144 -1 -1 0
1;
#X obj 664 102 tgl 30 0 empty empty empty 17 7 0 10 -262144 -1 -1 0
1;
#X obj 698 102 tgl 30 0 empty empty empty 17 7 0 10 -262144 -1 -1 0
1;
#X obj 732 102 tgl 30 0 empty empty empty 17 7 0 10 -262144 -1 -1 0
1;
#X obj 766 102 tgl 30 0 empty empty empty 17 7 0 10 -262144 -1 -1 0
1;
#X obj 800 102 tgl 30 0 empty empty empty 17 7 0 10 -262144 -1 -1 0
1;
#X obj 834 102 tgl 30 0 empty empty empty 17 7 0 10 -262144 -1 -1 0
1;
#X obj 868 102 tgl 30 0 empty empty empty 17 7 0 10 -262144 -1 -1 0
1;
#X obj 342 41 receive beat;
#X obj 391 186 f;
#X obj 425 186 f;
#X obj 459 186 f;
#X obj 493 186 f;
#X obj 527 186 f;
#X obj 561 186 f;
#X obj 595 186 f;
#X obj 629 186 f;
#X obj 663 186 f;
#X obj 697 186 f;
#X obj 731 186 f;
#X obj 765 186 f;
#X obj 799 186 f;
#X obj 833 186 f;
#X obj 867 186 f;
#X obj 632 287 outlet;
#X obj 357 186 f;
#X connect 0 0 34 0;
#X connect 0 1 18 0;
#X connect 0 2 19 0;
#X connect 0 3 20 0;
#X connect 0 4 21 0;
#X connect 0 5 22 0;
#X connect 0 6 23 0;
#X connect 0 7 24 0;
#X connect 0 8 25 0;
#X connect 0 9 26 0;
#X connect 0 10 27 0;
#X connect 0 11 28 0;
#X connect 0 12 29 0;
#X connect 0 13 30 0;
#X connect 0 14 31 0;
#X connect 0 15 32 0;
#X connect 1 0 34 1;
#X connect 2 0 18 1;
#X connect 3 0 19 1;
#X connect 4 0 20 1;
#X connect 5 0 21 1;
#X connect 6 0 22 1;
#X connect 7 0 23 1;
#X connect 8 0 24 1;
#X connect 9 0 25 1;
#X connect 10 0 26 1;
#X connect 11 0 27 1;
#X connect 12 0 28 1;
#X connect 13 0 29 1;
#X connect 14 0 30 1;
#X connect 15 0 31 1;
#X connect 16 0 32 1;
#X connect 17 0 0 0;
#X connect 18 0 33 0;
#X connect 19 0 33 0;
#X connect 20 0 33 0;
#X connect 21 0 33 0;
#X connect 22 0 33 0;
#X connect 23 0 33 0;
#X connect 24 0 33 0;
#X connect 25 0 33 0;
#X connect 26 0 33 0;
#X connect 27 0 33 0;
#X connect 28 0 33 0;
#X connect 29 0 33 0;
#X connect 30 0 33 0;
#X connect 31 0 33 0;
#X connect 32 0 33 0;
#X connect 34 0 33 0;
#X coords 0 -1 1 1 800 34 2 100 100;
