#N canvas 222 405 636 523 10;
#X obj 33 39 unpack f f;
#X obj 35 96 mtof;
#X obj 153 71 / 127;
#X obj 35 121 osc~ 440;
#X obj 153 203 pack f f;
#X obj 294 203 +;
#X obj 262 236 delay;
#X obj 280 13 inlet attack;
#X obj 390 15 inlet dur;
#X obj 510 14 inlet release;
#X msg 282 298 0 \$1;
#X obj 234 347 line~;
#X obj 122 389 *~;
#X obj 153 96 t f b b b;
#X obj 122 450 outlet~;
#X obj 250 146 f \$1;
#X obj 329 145 f \$2;
#X obj 282 273 f \$3;
#X obj 33 14 inlet;
#X connect 0 0 1 0;
#X connect 0 1 2 0;
#X connect 1 0 3 0;
#X connect 2 0 13 0;
#X connect 3 0 12 0;
#X connect 4 0 11 0;
#X connect 5 0 6 1;
#X connect 6 0 17 0;
#X connect 7 0 15 1;
#X connect 8 0 16 1;
#X connect 9 0 17 1;
#X connect 10 0 11 0;
#X connect 11 0 12 1;
#X connect 12 0 14 0;
#X connect 13 0 4 0;
#X connect 13 1 6 0;
#X connect 13 2 15 0;
#X connect 13 3 16 0;
#X connect 15 0 4 1;
#X connect 15 0 5 0;
#X connect 16 0 5 1;
#X connect 17 0 10 0;
#X connect 18 0 0 0;
