#N canvas 261 142 475 563 10;
#X obj 244 304 line~;
#X obj 228 180 / 44.1;
#X obj 244 327 tabread~ array_piano;
#X msg 297 224 0;
#X obj 101 2 inlet;
#X obj 101 25 unpack f f f;
#X obj 107 428 outlet~;
#X obj 260 238 *;
#X obj 212 91 mtof;
#X obj 301 185 /;
#X msg 269 141 440;
#X obj 221 149 inlet;
#X obj 212 114 t b b b b f;
#X obj 188 179 f;
#X obj 212 262 pack f f;
#X obj 106 391 voice_any 20 800 50;
#X connect 0 0 2 0;
#X connect 1 0 7 1;
#X connect 2 0 15 1;
#X connect 3 0 0 0;
#X connect 4 0 5 0;
#X connect 5 0 15 0;
#X connect 5 1 8 0;
#X connect 5 2 15 3;
#X connect 7 0 14 1;
#X connect 8 0 12 0;
#X connect 9 0 7 0;
#X connect 10 0 9 0;
#X connect 11 0 1 0;
#X connect 11 0 13 1;
#X connect 12 1 13 0;
#X connect 12 2 3 0;
#X connect 12 3 10 0;
#X connect 12 4 9 1;
#X connect 13 0 14 0;
#X connect 14 0 0 0;
#X connect 15 0 6 0;
