#N canvas 241 122 1116 606 10;
#X obj 375 180 sel 0 1 2 3 4 5 6 7 8 9 10 11 12 13 14 15;
#X obj 392 102 tgl 30 1 empty empty empty 17 7 0 10 -1 -262144 -1 1
1;
#X obj 426 102 tgl 30 1 empty empty empty 17 7 0 10 -1 -262144 -1 0
1;
#X obj 460 102 tgl 30 0 empty empty empty 17 7 0 10 -1 -262144 -1 0
1;
#X obj 494 102 tgl 30 1 empty empty empty 17 7 0 10 -1 -262144 -1 0
1;
#X obj 528 102 tgl 30 1 empty empty empty 17 7 0 10 -1 -262144 -1 0
1;
#X obj 562 102 tgl 30 0 empty empty empty 17 7 0 10 -1 -262144 -1 0
1;
#X obj 596 102 tgl 30 1 empty empty empty 17 7 0 10 -1 -262144 -1 0
1;
#X obj 630 102 tgl 30 1 empty empty empty 17 7 0 10 -1 -262144 -1 0
1;
#X obj 664 102 tgl 30 1 empty empty empty 17 7 0 10 -1 -262144 -1 1
1;
#X obj 698 102 tgl 30 1 empty empty empty 17 7 0 10 -1 -262144 -1 1
1;
#X obj 732 102 tgl 30 1 empty empty empty 17 7 0 10 -1 -262144 -1 0
1;
#X obj 766 102 tgl 30 1 empty empty empty 17 7 0 10 -1 -262144 -1 0
1;
#X obj 800 102 tgl 30 1 empty empty empty 17 7 0 10 -1 -262144 -1 0
1;
#X obj 834 102 tgl 30 1 empty empty empty 17 7 0 10 -1 -262144 -1 1
1;
#X obj 868 102 tgl 30 1 empty empty empty 17 7 0 10 -1 -262144 -1 1
1;
#X obj 902 102 tgl 30 1 empty empty empty 17 7 0 10 -1 -262144 -1 0
1;
#X obj 374 142 receive beat;
#X obj 408 215 f;
#X obj 442 215 f;
#X obj 476 215 f;
#X obj 510 215 f;
#X obj 544 215 f;
#X obj 578 215 f;
#X obj 612 215 f;
#X obj 646 215 f;
#X obj 680 215 f;
#X obj 714 215 f;
#X obj 748 215 f;
#X obj 782 215 f;
#X obj 816 215 f;
#X obj 850 215 f;
#X obj 884 215 f;
#X obj 374 215 f;
#X obj 358 102 bng 30 50 50 1 empty empty empty 17 7 0 10 -83269 -257985
-4032;
#X obj 241 561 outlet;
#X obj 252 102 hsl 100 30 0 127 0 1 empty empty empty -2 -8 0 10 -13381
-4034 -4034 3600 1;
#X floatatom 386 161 5 0 0 0 - - -;
#X obj 632 275 sel 0;
#X obj 338 449 + 1;
#X obj 304 486 mod 4;
#X obj 304 449 f 0;
#X obj 240 521 pack f f;
#X obj 247 435 f 127;
#X obj 215 102 tgl 30 1 empty empty empty 17 7 0 10 -86277 -258113
-1 1 1;
#X obj 232 470 *;
#X obj 210 436 f;
#X floatatom 637 330 5 0 0 0 - - -;
#X obj 299 362 t b b b b;
#X obj 136 473 sel 0;
#X connect 0 0 33 0;
#X connect 0 1 18 0;
#X connect 0 2 19 0;
#X connect 0 3 20 0;
#X connect 0 4 21 0;
#X connect 0 5 22 0;
#X connect 0 6 23 0;
#X connect 0 7 24 0;
#X connect 0 8 25 0;
#X connect 0 9 26 0;
#X connect 0 10 27 0;
#X connect 0 11 28 0;
#X connect 0 12 29 0;
#X connect 0 13 30 0;
#X connect 0 14 31 0;
#X connect 0 15 32 0;
#X connect 1 0 33 1;
#X connect 2 0 18 1;
#X connect 3 0 19 1;
#X connect 4 0 20 1;
#X connect 5 0 21 1;
#X connect 6 0 22 1;
#X connect 7 0 23 1;
#X connect 8 0 24 1;
#X connect 9 0 25 1;
#X connect 10 0 26 1;
#X connect 11 0 27 1;
#X connect 12 0 28 1;
#X connect 13 0 29 1;
#X connect 14 0 30 1;
#X connect 15 0 31 1;
#X connect 16 0 32 1;
#X connect 17 0 0 0;
#X connect 17 0 37 0;
#X connect 18 0 38 0;
#X connect 19 0 38 0;
#X connect 20 0 38 0;
#X connect 21 0 38 0;
#X connect 22 0 38 0;
#X connect 23 0 38 0;
#X connect 24 0 38 0;
#X connect 25 0 38 0;
#X connect 26 0 38 0;
#X connect 27 0 38 0;
#X connect 28 0 38 0;
#X connect 29 0 38 0;
#X connect 30 0 38 0;
#X connect 31 0 38 0;
#X connect 32 0 38 0;
#X connect 33 0 38 0;
#X connect 36 0 43 1;
#X connect 38 1 47 0;
#X connect 38 1 48 0;
#X connect 39 0 41 1;
#X connect 40 0 42 0;
#X connect 41 0 39 0;
#X connect 41 0 40 0;
#X connect 42 0 35 0;
#X connect 43 0 45 1;
#X connect 44 0 46 1;
#X connect 45 0 42 1;
#X connect 46 0 45 0;
#X connect 46 0 49 0;
#X connect 48 0 41 0;
#X connect 48 1 46 0;
#X connect 48 2 43 0;
#X connect 49 1 34 0;
#X coords 0 -1 1 1 834 34 2 100 100;
