#N canvas 769 341 791 510 10;
#X obj 153 203 pack f f;
#X obj 294 203 +;
#X obj 262 236 delay;
#X obj 280 13 inlet attack;
#X obj 390 15 inlet dur;
#X obj 510 14 inlet release;
#X msg 282 298 0 \$1;
#X obj 234 347 line~;
#X obj 122 389 *~;
#X obj 153 96 t f b b b;
#X obj 122 450 outlet~;
#X obj 250 146 f \$1;
#X obj 329 145 f \$2;
#X obj 282 273 f \$3;
#X obj 78 16 inlet;
#X obj 134 285 inlet~;
#X obj 117 50 / 127;
#X connect 0 0 7 0;
#X connect 1 0 2 1;
#X connect 2 0 13 0;
#X connect 3 0 11 1;
#X connect 4 0 12 1;
#X connect 5 0 13 1;
#X connect 6 0 7 0;
#X connect 7 0 8 1;
#X connect 8 0 10 0;
#X connect 9 0 0 0;
#X connect 9 1 2 0;
#X connect 9 2 11 0;
#X connect 9 3 12 0;
#X connect 11 0 0 1;
#X connect 11 0 1 0;
#X connect 12 0 1 1;
#X connect 13 0 6 0;
#X connect 14 0 16 0;
#X connect 15 0 8 0;
#X connect 16 0 9 0;
