#N canvas 114 269 356 356 12;
#X obj -974 156 phasor~ 50;
#X obj -1020 153 mtof;
#X obj -1001 225 +~;
#X obj -974 178 *~ 2;
#X obj -1020 175 osc~;
#X obj -975 133 mtof;
#X obj -1025 26 inlet;
#X obj -1039 338 outlet~;
#X obj -1025 55 unpack f f f;
#X obj -1039 291 voice_any 20 800 50;
#X obj -907 19 bng 15 250 50 0 empty empty empty 17 7 0 10 -262144
-1 -1;
#X obj -974 204 -~ 1;
#X obj -977 92 - 36;
#X connect 0 0 3 0;
#X connect 1 0 4 0;
#X connect 2 0 9 1;
#X connect 3 0 11 0;
#X connect 4 0 2 0;
#X connect 5 0 0 0;
#X connect 6 0 8 0;
#X connect 8 0 9 0;
#X connect 8 0 10 0;
#X connect 8 1 1 0;
#X connect 8 1 12 0;
#X connect 8 2 9 3;
#X connect 9 0 7 0;
#X connect 11 0 2 1;
#X connect 12 0 5 0;
