#N canvas 702 325 450 300 10;
#X obj -70 121 mtof;
#X obj -70 144 phasor~;
#X obj -70 169 *~ 2051;
#X obj -70 189 tabread4~ waveform;
#X obj -95 47 inlet;
#X obj -98 254 outlet~;
#X obj -95 82 unpack f f f;
#X obj -98 217 voice_any 20 800 50;
#X connect 0 0 1 0;
#X connect 1 0 2 0;
#X connect 2 0 3 0;
#X connect 3 0 7 1;
#X connect 4 0 6 0;
#X connect 6 0 7 0;
#X connect 6 1 0 0;
#X connect 6 2 7 3;
#X connect 7 0 5 0;
